/* XPM */
static char *navigation[] = {
/* columns rows colors chars-per-pixel */
"60 60 195 2 ",
"   c black",
".  c #090909",
"X  c gray4",
"o  c #0B0B0B",
"O  c #0C0C0C",
"+  c gray5",
"@  c #0E0E0E",
"#  c #101010",
"$  c #111111",
"%  c gray7",
"&  c gray8",
"*  c #151515",
"=  c #161616",
"-  c #181818",
";  c #191919",
":  c #1B1B1B",
">  c gray11",
",  c #1D1D1D",
"<  c #1E1E1E",
"1  c gray12",
"2  c #222222",
"3  c #232323",
"4  c #252525",
"5  c gray15",
"6  c #282828",
"7  c #2A2A2A",
"8  c gray17",
"9  c #2C2C2C",
"0  c #2F2F2F",
"q  c gray19",
"w  c #323232",
"e  c gray20",
"r  c #343434",
"t  c #353535",
"y  c #373737",
"u  c gray22",
"i  c #393939",
"p  c #3A3A3A",
"a  c #3C3C3C",
"s  c #3E3E3E",
"d  c #3F3F3F",
"f  c gray25",
"g  c #414141",
"h  c gray26",
"j  c #434343",
"k  c #444444",
"l  c gray27",
"z  c #464646",
"x  c gray28",
"c  c #484848",
"v  c #494949",
"b  c #4C4C4C",
"n  c gray30",
"m  c gray31",
"M  c #505050",
"N  c gray32",
"B  c #535353",
"V  c gray33",
"C  c #555555",
"Z  c #565656",
"A  c gray34",
"S  c #585858",
"D  c gray35",
"F  c #5A5A5A",
"G  c gray36",
"H  c #5D5D5D",
"J  c gray37",
"K  c #5F5F5F",
"L  c #606060",
"P  c gray38",
"I  c #626262",
"U  c gray40",
"Y  c #676767",
"T  c DimGray",
"R  c #6A6A6A",
"E  c gray42",
"W  c #6C6C6C",
"Q  c #6D6D6D",
"!  c gray43",
"~  c #6F6F6F",
"^  c gray44",
"/  c #717171",
"(  c #727272",
")  c gray45",
"_  c #767676",
"`  c #777777",
"'  c gray47",
"]  c #797979",
"[  c gray48",
"{  c #7B7B7B",
"}  c #7C7C7C",
"|  c gray49",
" . c #7E7E7E",
".. c gray50",
"X. c #818181",
"o. c gray51",
"O. c #838383",
"+. c #868686",
"@. c gray53",
"#. c #888888",
"$. c gray54",
"%. c gray55",
"&. c #8E8E8E",
"*. c gray56",
"=. c #909090",
"-. c #929292",
";. c gray58",
":. c gray59",
">. c #979797",
",. c #989898",
"<. c #9A9A9A",
"1. c #9B9B9B",
"2. c gray61",
"3. c #9D9D9D",
"4. c gray62",
"5. c #9F9F9F",
"6. c gray63",
"7. c gray64",
"8. c #A4A4A4",
"9. c gray65",
"0. c #A7A7A7",
"q. c gray66",
"w. c #A9A9A9",
"e. c #AAAAAA",
"r. c gray67",
"t. c #ACACAC",
"y. c gray68",
"u. c #AFAFAF",
"i. c gray69",
"p. c #B1B1B1",
"a. c #B2B2B2",
"s. c gray71",
"d. c #B6B6B6",
"f. c #B7B7B7",
"g. c gray72",
"h. c #B9B9B9",
"j. c gray73",
"k. c #BBBBBB",
"l. c gray74",
"z. c gray",
"x. c gray75",
"c. c #C0C0C0",
"v. c #C1C1C1",
"b. c gray76",
"n. c gray77",
"m. c #C5C5C5",
"M. c #C6C6C6",
"N. c gray78",
"B. c gray79",
"V. c #CACACA",
"C. c #CBCBCB",
"Z. c gray80",
"A. c #CDCDCD",
"S. c #CECECE",
"D. c #D0D0D0",
"F. c gray82",
"G. c #D2D2D2",
"H. c LightGray",
"J. c gray84",
"K. c #D7D7D7",
"L. c #D8D8D8",
"P. c gray85",
"I. c #DADADA",
"U. c gainsboro",
"Y. c gray87",
"T. c #DFDFDF",
"R. c #E1E1E1",
"E. c #E2E2E2",
"W. c gray89",
"Q. c #E4E4E4",
"!. c gray90",
"~. c #E7E7E7",
"^. c gray91",
"/. c #E9E9E9",
"(. c gray92",
"). c #ECECEC",
"_. c gray93",
"`. c #EEEEEE",
"'. c gray94",
"]. c #F1F1F1",
"[. c gray95",
"{. c #F3F3F3",
"}. c #F4F4F4",
"|. c gray96",
" X c #F6F6F6",
".X c gray97",
"XX c #F8F8F8",
"oX c #F9F9F9",
"OX c gray98",
"+X c #FBFBFB",
"@X c gray99",
"#X c #FDFDFD",
"$X c #FEFEFE",
"%X c white",
"&X c None",
/* pixels */
"&X&X&X&X&X&X&X&X&X&X&X&X%X%X%X%X%X%X%X%X%X%X%X%X%X%X%X%X%X%X%X%X%X%X%X%X%X%X%X%X%X%X%X%X%X%X%X%X&X&X&X&X&X&X&X&X&X&X&X&X",
"&X&X&X&X&X&X&X&X&X%X%X%X%X%X%X%X%X%X%X%X%X%X%X%X%X%X%X%X%X%X%X%X%X%X%X%X%X%X%X%X%X%X%X%X%X%X%X%X%X%X%X&X&X&X&X&X&X&X&X&X",
"&X&X&X&X&X&X&X%X%X%X%X%X%X%X%X{.^.^.^.^.^.^.^.^.^.^.^.^.^.^.^.^.^.^.^.^.^.^.^.^.^.^.^.^.{.%X%X%X%X%X%X%X%X&X&X&X&X&X&X&X",
"&X&X&X&X&X&X%X%X%X%X+Xf.E 9 @                                                             @ 9 E f.+X%X%X%X%X&X&X&X&X&X&X",
"&X&X&X&X&X%X%X%X#X7.3                                                                             3 7.#X%X%X%X&X&X&X&X&X",
"&X&X&X&X%X%X%X).d                                                                                     d ).%X%X%X&X&X&X&X",
"&X&X&X%X%X%XI.3             t G Z q                                                                     3 I.%X%X%X&X&X&X",
"&X&X%X%X%X).3         w [ V._.XX{.).j.R X                                                                 3 ).%X%X%X&X&X",
"&X&X%X%X#Xd         x D.%X%X%X%X%X%X%X+Xc.p                                                                 d #X%X%X&X&X",
"&X%X%X%X7.        F ^.%X%X%X%X%X%X%X%X%X%XL.f                                                                 7.%X%X%X&X",
"&X%X%X+X3       r H.%X%X%X%X%X%X%X%X%X%X%X%Xf.                                                                3 +X%X%X&X",
"&X%X%Xf.        $.%X%X%X%X%X%X@X@X%X%X%X%X%XXX`                                                                 f.%X%X&X",
"%X%X%XE       1 Y.%X%X%X%X@Xk.{ O.S.%X%X%X%X%Xb.                                                                E %X%X%X",
"%X%X%X9       n ].%X%X%X%Xp.;     r G.%X%X%X%XW.+                                                               9 %X%X%X",
"%X%X%X@       R %X%X%X%X.XS         +.%X%X%X%X(.K                                                               @ %X%X%X",
"%X%X{.        J $X%X%X%XXXD         %.%X%X%X%X).N                                                                 {.%X%X",
"%X%X^.        v ^.%X%X%X%Xi.#     i H.%X%X%X%XP.                                                                  ^.%X%X",
"%X%X^.          M.%X%X%X%X+Xs.Y ^ N.%X%X%X%X%Xq.                                                                  ^.%X%X",
"%X%X^.          W .X%X%X%X%X%X%X%X%X%X%X%X%X`.f                                                                   ^.%X%X",
"%X%X^.          $ n.%X%X%X%X%X%X%X%X%X%X%X%X0.                                                                    ^.%X%X",
"%X%X^.            T |.%X%X%X%X%X%X%X%X%X%X(.g                                                                     ^.%X%X",
"%X%X^.              7.%X%X%X%X%X%X%X%X%XOX|                                                                       ^.%X%X",
"%X%X^.              p K.%X%X%X%X%X%X%X%Xb.7                                                                       ^.%X%X",
"%X%X^.                / ].%X%X%X%X%X%X!.b                                                                         ^.%X%X",
"%X%X^.                  -.@X%X%X%X%X}.(                                           g ! =.&...J &                   ^.%X%X",
"%X%X^.                  7 b.%X%X%X+X3.                                        a 5.Y.OX%X%X%X).V.Q                 ^.%X%X",
"%X%X^.                    k L.%X%Xc.w                                       A J.%X%X%X%X%X%X%X%X|.2.*             ^.%X%X",
"%X%X^.                      G ~.P.i                                       B U.%X%X%X%X%X%X%X%X%X%XoX2.            ^.%X%X",
"%X%X^.                        F b                                       o v.%X%X%X%X%X%X%X%X%X%X%X%X XQ           ^.%X%X",
"%X%X^.                      < R E A     u H B =                         U  X%X%X%X%X%X~.T..X%X%X%X%X%XC.          ^.%X%X",
"%X%X^.                      #.'.[.J.v > V.[.R.R.:.                      i.%X%X%X%X+X9.C c Q R.%X%X%X%X[.C         ^.%X%X",
"%X%X^.                      } ~.).S.f = D. X%X%XU.  j Z.8.4             B.%X%X%X%XF.e       ] %X%X%X%X$X#.        ^.%X%X",
"%X%X^.                        m H z     p c L k k   v %X#Xs.9           W.%X%X%X%X5.        P /.%X%X%X%X$.        ^.%X%X",
"%X%X^.                                              8 8.OX#X}           D.%X%X%X%Xv.        I oX%X%X%X%X%.        ^.%X%X",
"%X%X^.                                                % x.%X:.          i.%X%X%X%X`.)     < v.%X%X%X%X].n         ^.%X%X",
"%X%X^.                                            2 D t n *.g           I  X%X%X%X%X{.m.z.J.$X%X%X%X%Xm.          ^.%X%X",
"%X%X^.                                        I h.E..Xy.                X S.%X%X%X%X%X%X%X%X%X%X%X%X+X}           ^.%X%X",
"%X%X^.                            8 ^ 0.4.  9 /.%X%X+Xq.                  ~ |.%X%X%X%X%X%X%X%X%X%X%XD..           ^.%X%X",
"%X%X^.                          X.!.+X%X(.k X 0.z.5.M :                     h.%X%X%X%X%X%X%X%X%X%X`.A             ^.%X%X",
"%X%X^.                          a.%X}.T.<.7                                 v ~.%X%X%X%X%X%X%X%X%Xw.              ^.%X%X",
"%X%X^.                  S L.k.- s B V ,                                       X.OX%X%X%X%X%X%X%XS.8               ^.%X%X",
"%X%X^.                  l.%XS.6                                               O k.%X%X%X%X%X%X].F                 ^.%X%X",
"%X%X^.                j T.%XW                                                   f K.%X%X%X%XOX#.                  ^.%X%X",
"%X%X^.                : P.%XY                                                     R _.%X%X%Xy.                    ^.%X%X",
"%X%X{.                  X.f.t 5 l j                                                 %.|.%XH.u                     {.%X%X",
"%X%X%X@                       -.`.Q.A.@.%                                             1.E.x                     @ %X%X%X",
"%X%X%X9                        .~.%X%XOXB   >.z.6.;.m     i l +                       . h                       9 %X%X%X",
"%X%X%XE                         y o.b.g.0   Y.%X%X%X(.* g U.`.}.Y.,.  y 3.e.e.a.h   p t.r.-.=                   E %X%X%X",
"&X%X%Xf.                                    ' 8.l.B.i.  j /.#X%X%Xm.  _ #X%X%X%X,.  q.%X%X XF                   f.%X%X&X",
"&X%X%X+X3                                                 l I ,.;.D   y u.c.z.d.x   x x.b.0.=                 3 +X%X%X&X",
"&X%X%X%X7.                                                                                                    7.%X%X%X&X",
"&X&X%X%X#Xd                                                                                                 d #X%X%X&X&X",
"&X&X%X%X%X).3                                                                                             3 ).%X%X%X&X&X",
"&X&X&X%X%X%XI.3                                                                                         3 I.%X%X%X&X&X&X",
"&X&X&X&X%X%X%X).d                                                                                     d ).%X%X%X&X&X&X&X",
"&X&X&X&X&X%X%X%X#X7.3                                                                             3 7.#X%X%X%X&X&X&X&X&X",
"&X&X&X&X&X&X%X%X%X%X+Xf.E 9 @                                                             @ 9 E f.+X%X%X%X%X&X&X&X&X&X&X",
"&X&X&X&X&X&X&X%X%X%X%X%X%X%X%X{.^.^.^.^.^.^.^.^.^.^.^.^.^.^.^.^.^.^.^.^.^.^.^.^.^.^.^.^.{.%X%X%X%X%X%X%X%X&X&X&X&X&X&X&X",
"&X&X&X&X&X&X&X&X&X%X%X%X%X%X%X%X%X%X%X%X%X%X%X%X%X%X%X%X%X%X%X%X%X%X%X%X%X%X%X%X%X%X%X%X%X%X%X%X%X%X%X&X&X&X&X&X&X&X&X&X",
"&X&X&X&X&X&X&X&X&X&X&X&X%X%X%X%X%X%X%X%X%X%X%X%X%X%X%X%X%X%X%X%X%X%X%X%X%X%X%X%X%X%X%X%X%X%X%X%X&X&X&X&X&X&X&X&X&X&X&X&X"
};
